Poster: 
http://imgh.us/Battleship-20122-iPad-Wallpaper-iPad-3-.jpg


Info:

Format : AVI
Format/Info : Audio Video Interleave
File size : 1.37 GiB
Duration : 2h 0mn
Overall bit rate : 1 618 Kbps
Writing application : FairUse Wizard - http://fairusewizard.com
Writing library : The best and REALLY easy backup tool

Video
ID : 0
Format : MPEG-4 Visual
Format profile : Simple@L3
Format settings, BVOP : No
Format settings, QPel : No
Format settings, GMC : No warppoints
Format settings, Matrix : Default (H.263)
Codec ID : XVID
Codec ID/Hint : XviD
Duration : 2h 0mn
Bit rate : 1 478 Kbps
Width : 688 pixels
Height : 312 pixels
Display aspect ratio : 2.2:1
Frame rate : 29.970 fps
Color space : YUV
Chroma subsampling : 4:2:0
Bit depth : 8 bits
Scan type : Progressive
Compression mode : Lossy
Bits/(Pixel*Frame) : 0.230
Stream size : 1.25 GiB (91%)
Writing library : XviD 1.2.1 (UTC 2008-12-04)

Audio
ID : 1
Format : MPEG Audio
Format version : Version 1
Format profile : Layer 3
Mode : Joint stereo
Mode extension : MS Stereo
Codec ID : 55
Codec ID/Hint : MP3
Duration : 2h 0mn
Bit rate mode : Constant
Bit rate : 128 Kbps
Channel(s) : 2 channels
Sampling rate : 48.0 KHz
Compression mode : Lossy
Stream size : 111 MiB (8%)
Alignment : Aligned on interleaves
Interleave, duration : 33 ms (1.00 video frame)
Interleave, preload duration : 504 ms
Writing library : LAME3.97
Encoding settings : -m j -V 4 -q 2 -lowpass 17 -b 128

SCREENS: 
http://imgh.us/31633106402109075532.jpg 
http://imgh.us/10013811709758610155.jpg 
http://imgh.us/81540747203774908699.jpg 
http://imgh.us/battleship2012r6webscr.jpg
